<svg xmlns="http://www.w3.org/2000/svg" viewBox="0 0 301.38 301.38"><defs><style>.cls-1{fill:#31ad5d;}</style></defs><g id="Layer_2" data-name="Layer 2"><g id="g_-0" data-name="g$-0"><g id="tight-bounds"><g id="icon-0"><path class="cls-1" d="M0,150.69A150.69,150.69,0,1,1,150.69,301.38,150.69,150.69,0,0,1,0,150.69ZM150.69,285.51A134.82,134.82,0,1,0,15.87,150.69,134.81,134.81,0,0,0,150.69,285.51Z"/><path class="cls-1" d="M144.26,130.18h-.09l-2.49-.08C119,129.37,99.9,110.3,99.17,87.6l-.08-2.5a2.2,2.2,0,0,1,.65-1.63,2.14,2.14,0,0,1,1.63-.65l2.49.08c22.71.73,41.78,19.81,42.51,42.51l.08,2.5a2.14,2.14,0,0,1-.65,1.62A2.16,2.16,0,0,1,144.26,130.18ZM103.54,87.27v.16c.65,20.46,17.82,37.63,38.27,38.28H142v-.16c-.65-20.43-17.83-37.6-38.28-38.28Z"/><path class="cls-1" d="M151.34,155.06a2.17,2.17,0,0,1-2.17-2,56.21,56.21,0,0,0-8.17-24,55.31,55.31,0,0,0-14.4-15.65,2.19,2.19,0,1,1,2.6-3.53,59.71,59.71,0,0,1,15.52,16.85,60.57,60.57,0,0,1,8.79,25.85,2.2,2.2,0,0,1-2,2.39A.29.29,0,0,1,151.34,155.06Z"/><path class="cls-1" d="M157.17,138.78a2.1,2.1,0,0,1-1.55-.65,2.25,2.25,0,0,1-.65-1.62l.08-2.5c.73-22.71,19.8-41.8,42.51-42.51l2.5-.08a2.21,2.21,0,0,1,1.62.65,2.23,2.23,0,0,1,.65,1.63l-.08,2.47c-.73,22.7-19.8,41.77-42.51,42.51l-2.49.08Zm40.72-42.91h-.17c-20.45.65-37.62,17.82-38.27,38.28v.16h.16c20.45-.65,37.62-17.82,38.28-38.28Z"/><path class="cls-1" d="M151.61,155.06c-.17,0-.36,0-.55-.05a2.22,2.22,0,0,1-1.6-2.66,59,59,0,0,1,7.19-17,60.5,60.5,0,0,1,15.55-16.84,2.19,2.19,0,1,1,2.6,3.52,56,56,0,0,0-21.05,31.34A2.22,2.22,0,0,1,151.61,155.06Z"/><path class="cls-1" d="M108.12,218.56a2.09,2.09,0,0,1-1.57-.67,2.19,2.19,0,0,1,.08-3.1l8.55-8.13a28.22,28.22,0,0,1,19.61-7.84H172.2a24,24,0,0,0,16.44-6.49L212,170.52a3.15,3.15,0,0,0,.08-4.53,3.13,3.13,0,0,0-4.34-.08l-25.88,23.66a2.12,2.12,0,0,1-1.46.57H150.85a7.65,7.65,0,0,1,0-15.3h12a4.4,4.4,0,1,0,0-8.79H128.28a24,24,0,0,0-16.85,6.86L87.75,196.08A2.19,2.19,0,0,1,84.68,193l23.69-23.17a28.26,28.26,0,0,1,19.91-8.11h34.56a8.79,8.79,0,0,1,0,17.58H150.79a3.26,3.26,0,0,0,0,6.51h28.73l25.26-23.06a7.53,7.53,0,0,1,12.61,5.67,7.46,7.46,0,0,1-2.39,5.4l-23.38,21.81a28.39,28.39,0,0,1-19.42,7.65H134.79a24,24,0,0,0-16.6,6.64L109.64,218A2.43,2.43,0,0,1,108.12,218.56Z"/><path class="cls-1" d="M144.17,129.86h-.08l-2.55-.08c-23.06-.73-42.42-20.1-43.16-43.16L98.3,84.1A2.26,2.26,0,0,1,99,82.44a2.22,2.22,0,0,1,1.66-.65l2.52.08c23.06.73,42.43,20.1,43.16,43.16l.08,2.52a2.22,2.22,0,0,1-.65,1.66A2.14,2.14,0,0,1,144.17,129.86ZM102.83,86.32v.16c.68,20.76,18.1,38.2,38.88,38.88h.16v-.17C141.19,104.41,123.75,87,103,86.32Z"/><path class="cls-1" d="M151.36,155.14a2.18,2.18,0,0,1-2.19-2,57.33,57.33,0,0,0-8.28-24.33,56.65,56.65,0,0,0-14.62-15.87,2.23,2.23,0,0,1,2.66-3.58,61.18,61.18,0,0,1,15.76,17.12,62,62,0,0,1,8.92,26.23,2.22,2.22,0,0,1-2,2.44A.79.79,0,0,0,151.36,155.14Z"/><path class="cls-1" d="M157.25,138.59a2.24,2.24,0,0,1-2.23-2.3l.09-2.52c.73-23.06,20.1-42.43,43.16-43.16l2.52-.08a2.25,2.25,0,0,1,1.65.65,2.16,2.16,0,0,1,.65,1.65L203,95.35c-.73,23.06-20.1,42.43-43.16,43.16l-2.52.08ZM198.59,95h-.16c-20.75.68-38.2,18.09-38.87,38.87v.16h.16c20.75-.65,38.19-18.09,38.87-38.84Z"/><path class="cls-1" d="M151.63,155.14a4.93,4.93,0,0,1-.54,0,2.23,2.23,0,0,1-1.63-2.69,61.2,61.2,0,0,1,23.09-34.29,2.23,2.23,0,1,1,2.66,3.58,57,57,0,0,0-14.62,15.85,56,56,0,0,0-6.76,16A2.35,2.35,0,0,1,151.63,155.14Z"/><path class="cls-1" d="M107.47,219.6a2.27,2.27,0,0,1-1.6-.68,2.24,2.24,0,0,1,.08-3.15l8.68-8.27a28.83,28.83,0,0,1,19.91-8h38A24.42,24.42,0,0,0,189.2,193l23.74-22.14a3.07,3.07,0,0,0,1-2.28,3.15,3.15,0,0,0-.94-2.3,3.22,3.22,0,0,0-4.43-.09l-26.28,24a2.19,2.19,0,0,1-1.49.57h-30a7.76,7.76,0,1,1,0-15.51H163a4.48,4.48,0,0,0,0-9H128a24.23,24.23,0,0,0-17.09,7L86.8,196.75a2.22,2.22,0,1,1-3.12-3.17l24.06-23.52A28.74,28.74,0,0,1,128,161.81H163a8.9,8.9,0,1,1,0,17.8H150.79a3.31,3.31,0,0,0,0,6.62H180l25.64-23.41a7.62,7.62,0,0,1,10.52.22,7.54,7.54,0,0,1,2.26,5.53,7.66,7.66,0,0,1-2.42,5.48l-23.73,22.13a28.78,28.78,0,0,1-19.73,7.76h-38a24.35,24.35,0,0,0-16.85,6.73L109,218.94A2,2,0,0,1,107.47,219.6Z"/></g></g></g></g></svg>