<?xml version="1.0" encoding="utf-8"?>
<!-- Generator: Adobe Illustrator 26.3.0, SVG Export Plug-In . SVG Version: 6.00 Build 0)  -->
<svg version="1.1" id="Layer_1" xmlns="http://www.w3.org/2000/svg" xmlns:xlink="http://www.w3.org/1999/xlink" x="0px" y="0px"
	 viewBox="0 0 301.4 303.2" style="enable-background:new 0 0 301.4 303.2;" xml:space="preserve">
<style type="text/css">
	.st0{fill:#FFFFFF;}
	.st1{fill:#31AD5D;}
</style>
<circle class="st0" cx="150.8" cy="152.9" r="150.3"/>
<path class="st1" d="M0,150.7C0,67.5,67.5,0,150.7,0s150.7,67.5,150.7,150.7s-67.5,150.7-150.7,150.7S0,233.9,0,150.7
	C0,150.7,0,150.7,0,150.7z M150.7,285.5c74.5,0,134.8-60.4,134.8-134.8S225.1,15.9,150.7,15.9S15.9,76.2,15.9,150.7
	C15.9,225.1,76.2,285.5,150.7,285.5L150.7,285.5z"/>
<path class="st1" d="M144.3,130.2L144.3,130.2l-2.6-0.1c-22.7-0.7-41.8-19.8-42.5-42.5l-0.1-2.5c0-0.6,0.2-1.2,0.7-1.6
	c0.4-0.4,1-0.7,1.6-0.7l2.5,0.1c22.7,0.7,41.8,19.8,42.5,42.5l0.1,2.5c0,0.6-0.2,1.2-0.6,1.6C145.4,129.9,144.8,130.2,144.3,130.2z
	 M103.5,87.3v0.2c0.7,20.5,17.8,37.6,38.3,38.3h0.2v-0.2c-0.6-20.4-17.8-37.6-38.3-38.3H103.5z"/>
<path class="st1" d="M151.3,155.1c-1.1,0-2.1-0.9-2.2-2c-0.9-8.5-3.7-16.7-8.2-24c-3.7-6.1-8.6-11.4-14.4-15.7
	c-1-0.7-1.2-2.1-0.5-3.1c0.7-1,2.1-1.2,3.1-0.5l0,0l0,0c6.2,4.6,11.5,10.3,15.5,16.8c4.9,7.8,7.9,16.7,8.8,25.9
	c0.1,1.2-0.8,2.3-2,2.4c0,0,0,0,0,0l0,0C151.5,155,151.4,155.1,151.3,155.1z"/>
<path class="st1" d="M157.2,138.8c-0.6,0-1.1-0.2-1.6-0.6c-0.4-0.4-0.7-1-0.6-1.6l0.1-2.5c0.7-22.7,19.8-41.8,42.5-42.5l2.5-0.1
	c1.2,0,2.2,0.9,2.3,2.2c0,0,0,0.1,0,0.1l-0.1,2.5c-0.7,22.7-19.8,41.8-42.5,42.5L157.2,138.8L157.2,138.8z M197.9,95.9h-0.2
	c-20.4,0.7-37.6,17.8-38.3,38.3v0.2h0.2c20.4-0.6,37.6-17.8,38.3-38.3V95.9z"/>
<path class="st1" d="M151.6,155.1c-0.2,0-0.4,0-0.6-0.1c-1.2-0.3-1.9-1.5-1.6-2.7c1.5-6,3.9-11.7,7.2-17c4.1-6.6,9.3-12.3,15.6-16.8
	c0.9-0.8,2.3-0.6,3.1,0.3s0.6,2.3-0.3,3.1l0,0l-0.1,0.1c-10.4,7.7-17.9,18.8-21.1,31.3C153.5,154.4,152.6,155.1,151.6,155.1z"/>
<path class="st1" d="M108.1,218.6c-0.6,0-1.2-0.2-1.6-0.7c-0.8-0.9-0.8-2.3,0.1-3.1c0,0,0,0,0,0l0,0l8.6-8.1
	c5.3-5.1,12.3-7.9,19.6-7.8h37.4c6.1,0,12-2.3,16.4-6.5l23.4-21.8c1.3-1.2,1.3-3.2,0.2-4.4l-0.1-0.1c-1.2-1.2-3.1-1.2-4.3-0.1
	l-25.9,23.7c-0.4,0.4-0.9,0.6-1.5,0.6h-29.5c-4.2,0-7.6-3.4-7.6-7.6c0-4.2,3.4-7.7,7.6-7.7h12c2.4,0.1,4.5-1.8,4.6-4.2
	s-1.8-4.5-4.2-4.6c-0.1,0-0.3,0-0.4,0h-34.6c-6.3,0-12.4,2.5-16.8,6.9l-23.7,23.2c-1,0.7-2.3,0.6-3.1-0.4c-0.6-0.8-0.6-1.9,0-2.7
	l23.7-23.2c5.3-5.2,12.5-8.1,19.9-8.1h34.6c4.9,0,8.8,3.9,8.8,8.8c0,4.9-3.9,8.8-8.8,8.8h-12.1c-1.8,0.1-3.2,1.6-3.1,3.4
	c0.1,1.7,1.4,3,3.1,3.1h28.7l25.3-23.1c3.1-2.8,7.8-2.6,10.6,0.5c1.3,1.4,2,3.3,2,5.2c0,2.1-0.9,4-2.4,5.4l-23.4,21.8
	c-5.3,4.9-12.2,7.7-19.4,7.6h-37.4c-6.2,0-12.1,2.4-16.6,6.6l-8.5,8.1C109.2,218.4,108.7,218.6,108.1,218.6z"/>
<path class="st1" d="M144.2,129.9L144.2,129.9l-2.6-0.1c-23.1-0.7-42.4-20.1-43.2-43.2l-0.1-2.5c0-1.3,1-2.3,2.3-2.3c0,0,0,0,0.1,0
	l2.5,0.1c23.1,0.7,42.4,20.1,43.2,43.2l0.1,2.5c0,0.6-0.2,1.2-0.6,1.7C145.4,129.6,144.8,129.9,144.2,129.9z M102.8,86.3v0.2
	c0.7,20.8,18.1,38.2,38.9,38.9h0.2v-0.2c-0.7-20.8-18.1-38.2-38.9-38.9H102.8z"/>
<path class="st1" d="M151.4,155.1c-1.1,0-2.1-0.9-2.2-2c-0.9-8.6-3.7-17-8.3-24.3c-3.8-6.2-8.8-11.6-14.6-15.9
	c-1-0.7-1.2-2.1-0.5-3.1c0.7-1,2.1-1.2,3.1-0.5l0,0l0,0c6.3,4.6,11.6,10.5,15.8,17.1c4.9,8,8,16.9,8.9,26.2c0.1,1.2-0.8,2.3-2,2.4
	c0,0,0,0,0,0l0,0C151.5,155.1,151.4,155.1,151.4,155.1z"/>
<path class="st1" d="M157.2,138.6c-1.2,0-2.2-1-2.2-2.2c0,0,0,0,0,0v-0.1l0.1-2.5c0.7-23.1,20.1-42.4,43.2-43.2l2.5-0.1
	c0.6,0,1.2,0.2,1.6,0.7c0.4,0.4,0.7,1,0.6,1.7l-0.1,2.5c-0.7,23.1-20.1,42.4-43.2,43.2L157.2,138.6L157.2,138.6z M198.6,95h-0.2
	c-20.8,0.7-38.2,18.1-38.9,38.9v0.1h0.2c20.8-0.6,38.2-18.1,38.9-38.8V95z"/>
<path class="st1" d="M151.6,155.1c-0.2,0-0.4,0-0.5,0c-1.2-0.3-1.9-1.5-1.6-2.7c3.5-13.8,11.7-25.9,23.1-34.3c1-0.7,2.4-0.5,3.1,0.5
	c0.7,1,0.5,2.4-0.5,3.1l0,0l0,0c-5.8,4.3-10.8,9.7-14.6,15.8c-3.1,5-5.4,10.3-6.8,16C153.5,154.5,152.6,155.1,151.6,155.1z"/>
<path class="st1" d="M107.5,219.6c-0.6,0-1.2-0.3-1.6-0.7c-0.8-0.9-0.8-2.3,0.1-3.1l8.7-8.3c5.4-5.1,12.5-8,19.9-8h38
	c6.2,0,12.1-2.3,16.7-6.5l23.7-22.1c0.6-0.6,1-1.4,1-2.3c0-0.9-0.3-1.7-0.9-2.3c-1.2-1.2-3.2-1.2-4.4-0.1l-26.3,24
	c-0.4,0.4-0.9,0.6-1.5,0.6h-30c-4.3,0.2-7.9-3.2-8-7.5c-0.2-4.3,3.2-7.9,7.5-8H163c2.5,0,4.5-2,4.5-4.5s-2-4.5-4.5-4.5h-35
	c-6.4,0-12.5,2.5-17.1,7l-24.1,23.5c-0.9,0.9-2.3,0.9-3.1,0c-0.9-0.9-0.9-2.3,0-3.1l24.1-23.5c5.4-5.3,12.7-8.3,20.3-8.2h35
	c4.9,0,8.9,4,8.9,8.9c0,4.9-4,8.9-8.9,8.9l0,0h-12.2c-1.8,0-3.3,1.5-3.3,3.3c0,1.8,1.5,3.3,3.3,3.3H180l25.6-23.4
	c3-2.7,7.6-2.7,10.5,0.2c1.5,1.5,2.3,3.5,2.3,5.5c0,2.1-0.9,4.1-2.4,5.5l-23.7,22.1c-5.4,5-12.4,7.8-19.7,7.8h-38
	c-6.3,0-12.3,2.4-16.8,6.7l-8.7,8.3C108.6,219.4,108.1,219.6,107.5,219.6z"/>
</svg>
